# xmcd CD database file
#
# Track frame offsets:
#	150
#	19325
#	45650
#
# Disc length: 859 seconds
#
# Revision: 0
# Processed by: cddbd v1.5PL3 Copyright (c) Steve Scherf et al.
# Submitted via: CDex 1.50Beta7
#
DISCID=1e035903
DTITLE=キッスの世界 - Kiss of the world
DYEAR=2001
DGENRE=JPop
TTITLE0=Kiss of the world
TTITLE1=体をきたえよう
TTITLE2=Kiss of the world(Instrumental)
EXTD=YEAR: 2001
EXTT0=
EXTT1=
EXTT2=
PLAYORDER=
